<svg width="45" height="18" viewBox="0 0 45 18" fill="none" xmlns="http://www.w3.org/2000/svg">
<path d="M42.6126 4.37744H44.6607V14.6034H42.6126L37.9751 7.5959V14.6034H35.927V4.37744H37.9751L42.6126 11.3995V4.37744Z" fill="#F2545B"/>
<path d="M34.0667 4.37744V6.04519H30.19V8.60532H33.6279V10.2292H30.19V12.9356H34.0667V14.6034H28.1418V4.37744H34.0667Z" fill="#F2545B"/>
<path d="M20.5591 17.2508L24.509 0.748901H26.5132L22.5633 17.2508H20.5591Z" fill="#F2545B"/>
<path d="M17.0672 7.56593C17.0672 6.65891 16.5551 6.08836 15.414 6.08836H13.7024V9.08738H15.414C16.5551 9.08738 17.0672 8.48758 17.0672 7.56593ZM11.6543 4.39136H15.4872C17.9449 4.39136 19.1738 5.81041 19.1738 7.52204C19.1738 8.76553 18.4862 10.0237 16.8477 10.4625L19.2908 14.6026H16.9209L14.6679 10.6235H13.7024V14.6026H11.6543V4.39136Z" fill="#F2545B"/>
<path d="M8.11758 14.6032L7.44462 12.6575H3.37766L2.70471 14.6032H0.554199L4.22617 4.37732H6.61075L10.2827 14.6032H8.11758ZM6.88871 11.019L5.41114 6.74728L3.93358 11.019H6.88871Z" fill="#F2545B"/>
</svg>
