<svg width="548" height="138" viewBox="0 0 548 138" fill="none" xmlns="http://www.w3.org/2000/svg">
<path d="M181.033 39.6752H188.412L200.013 96.0728L211.617 39.6752H218.996L204.722 103.242H195.303L181.033 39.6752ZM232.83 103.242H225.839V39.6752H232.83V103.242ZM249.384 76.6641L271.57 39.678H279.386L249.874 86.9815L249.384 76.6641ZM243.559 39.6752L250.55 39.6752V103.242H243.559V39.6752ZM259.675 69.3127L264.093 62.7982L281.618 103.242H273.365L259.675 69.3127ZM286.957 39.6714L293.511 39.6714L315.89 91.8721L314.725 93.0088V39.6752H321.62V103.199H314.969L292.686 50.9983L293.851 49.8616V103.199H286.959L286.957 39.6714ZM367.737 103.902C364.655 103.98 361.605 103.316 358.902 101.978C356.433 100.687 354.466 98.7402 353.271 96.4046C351.903 93.6507 351.24 90.6552 351.33 87.6394V55.3262C351.236 52.2958 351.9 49.2853 353.271 46.5167C354.462 44.1863 356.419 42.2411 358.876 40.9438C361.586 39.6014 364.645 38.9372 367.736 39.0202C370.835 38.9391 373.901 39.6031 376.62 40.9438C379.086 42.2324 381.046 44.1805 382.227 46.5177C383.579 49.2755 384.234 52.2693 384.145 55.2828V57.5995H377.154V55.2828C377.21 53.3987 376.838 51.5241 376.061 49.774C375.415 48.3465 374.296 47.1328 372.857 46.2981C371.313 45.4633 369.535 45.0458 367.735 45.0955C365.951 45.0496 364.19 45.4671 362.663 46.2981C361.216 47.1407 360.09 48.3609 359.434 49.7956C358.642 51.5501 358.262 53.433 358.317 55.3262V87.6347C358.265 89.5136 358.645 91.3818 359.434 93.1219C360.09 94.5566 361.216 95.7768 362.663 96.6194C364.19 97.4504 365.951 97.8679 367.735 97.8221C369.535 97.8717 371.313 97.4542 372.857 96.6194C374.296 95.7847 375.415 94.571 376.061 93.1435C376.838 91.3934 377.21 89.5188 377.154 87.6347V85.3181H384.145V87.6347C384.234 90.6482 383.579 93.642 382.227 96.3998C381.046 98.737 379.086 100.685 376.62 101.974C373.902 103.316 370.836 103.981 367.737 103.902ZM408.466 103.902C405.187 103.984 401.935 103.337 399 102.017C396.419 100.801 394.324 98.8898 393.005 96.5506C391.554 93.8565 390.846 90.8869 390.942 87.8939V55.0199C390.846 52.0269 391.554 49.0573 393.005 46.3631C394.324 44.0239 396.419 42.1131 399 40.8967C401.936 39.5785 405.187 38.9327 408.466 39.0164C411.745 38.9327 414.996 39.5785 417.932 40.8967C420.513 42.1131 422.609 44.0239 423.928 46.3631C425.378 49.0573 426.086 52.0269 425.99 55.0199V87.8967C426.086 90.8887 425.379 93.8572 423.929 96.5506C422.61 98.8898 420.514 100.801 417.933 102.017C414.998 103.337 411.746 103.984 408.466 103.902ZM408.466 97.7372C410.44 97.7894 412.398 97.4066 414.17 96.6223C415.715 95.9009 416.972 94.7619 417.762 93.365C418.632 91.7606 419.057 89.9904 419.001 88.2058V54.7145C419.057 52.93 418.632 51.1598 417.762 49.5553C416.972 48.1585 415.715 47.0195 414.17 46.2981C412.398 45.5137 410.44 45.131 408.466 45.1831C406.493 45.131 404.535 45.5137 402.763 46.2981C401.217 47.0195 399.961 48.1585 399.17 49.5553C398.301 51.1598 397.876 52.93 397.932 54.7145V88.203C397.876 89.9875 398.301 91.7578 399.17 93.3622C399.961 94.759 401.217 95.898 402.763 96.6194C404.535 97.4036 406.493 97.7861 408.467 97.7335L408.466 97.7372ZM438.517 97.3838H455.701C456.419 97.4247 457.138 97.3247 457.809 97.0907C458.479 96.8566 459.085 96.4942 459.585 96.0285C460.56 94.9457 461.045 93.5721 460.946 92.1813V50.7363C461.045 49.3454 460.56 47.9718 459.585 46.889C459.085 46.4233 458.479 46.0609 457.809 45.8269C457.138 45.5928 456.419 45.4928 455.701 45.5337H438.517V39.6752H455.412C457.764 39.6145 460.097 40.0723 462.208 41.0088C464.052 41.8673 465.547 43.2291 466.48 44.8994C467.505 46.8277 468.005 48.9487 467.936 51.0859V91.8316C468.005 93.9712 467.497 96.0941 466.456 98.0181C465.509 99.6865 464.007 101.047 462.16 101.909C460.05 102.845 457.718 103.303 455.367 103.242H438.517V97.3838ZM434.731 39.6752H441.722V103.242H434.731V39.6752ZM476.674 39.6752H483.665V103.242H476.674V39.6752ZM481.48 97.3838H506.961V103.242L481.479 103.242L481.48 97.3838ZM481.48 68.7482H504.539V74.6067H481.479L481.48 68.7482ZM481.48 39.6752H506.961V45.5337H481.479L481.48 39.6752ZM530.946 103.902C527.655 104.002 524.38 103.442 521.359 102.262C518.892 101.233 516.882 99.4847 515.655 97.2999C514.302 94.7054 513.653 91.8585 513.762 88.9938V85.8458H520.655V88.9938C520.655 92.0543 521.505 94.3424 523.204 95.8579C524.903 97.3734 527.484 98.1312 530.948 98.1312C534.314 98.1312 536.83 97.3734 538.497 95.8579C540.164 94.3424 540.997 92.0543 540.997 88.9938V85.2342C541.057 83.3993 540.535 81.587 539.492 80.01C538.497 78.5746 537.184 77.3393 535.636 76.3814C533.703 75.2158 531.684 74.1712 529.592 73.2551C529.499 73.2276 529.409 73.1909 529.325 73.1458C529.244 73.1018 529.171 73.0654 529.106 73.0365L528.427 72.7302C525.773 71.5823 523.203 70.2828 520.733 68.8396C518.741 67.6103 517.068 66.0067 515.83 64.1394C514.413 61.9153 513.715 59.3787 513.815 56.8162V53.7126C513.709 50.8903 514.358 48.0863 515.709 45.5375C516.939 43.3771 518.939 41.6512 521.388 40.6365C524.389 39.4731 527.638 38.9208 530.903 39.0192C534.076 38.9238 537.231 39.4848 540.126 40.6592C542.531 41.7037 544.479 43.4428 545.66 45.5997C546.982 48.1943 547.614 51.031 547.505 53.8842V57.2064H540.607V53.8842C540.607 50.8531 539.798 48.5798 538.18 47.0643C536.562 45.5488 534.134 44.791 530.898 44.791C527.499 44.791 524.951 45.5136 523.252 46.9588C521.553 48.4039 520.704 50.5679 520.704 53.4506V56.5542C520.644 58.3257 521.205 60.0692 522.306 61.5381C523.359 62.8952 524.705 64.0475 526.263 64.9264C528.36 66.0717 530.523 67.1153 532.744 68.0526C533.003 68.1695 533.254 68.2788 533.496 68.3806C533.739 68.4824 533.99 68.5917 534.249 68.7086C534.379 68.767 534.5 68.8179 534.613 68.8613C534.723 68.9034 534.828 68.9545 534.927 69.0139C537.294 70.0501 539.545 71.2872 541.651 72.7085C543.53 74.0316 545.064 75.7109 546.142 77.6273C547.375 79.9125 547.974 82.4327 547.889 84.9722V88.9947C547.999 91.8502 547.359 94.6887 546.02 97.2792C544.807 99.4507 542.826 101.197 540.389 102.241C537.422 103.434 534.193 104.002 530.946 103.902Z" fill="#1D1D1D"/>
<path d="M40.8445 67.1639L67.4495 23.6681L15.1699 23.6681L0.0998535 0.609131L111.171 0.609131L71.285 67.1639L84.3803 89.5235L109.497 47.9485L139.637 47.9485L84.3803 137.391L40.8445 67.1639ZM124.567 23.8424L138.707 0.609131L168.847 0.609131L153.962 23.8424L124.567 23.8424Z" fill="#C20C20"/>
</svg>
