<svg width="46" height="46" viewBox="0 0 46 46" fill="none" xmlns="http://www.w3.org/2000/svg">
<rect y="0.382446" width="45.2351" height="45.2351" rx="2.48164" fill="#DADADA"/>
<g clip-path="url(#clip0_5331_3712)">
<path d="M27.944 29.1654H29.403C30.1413 29.1654 30.7477 28.6139 30.8356 27.9073L32.2858 13.7068H27.8912V10.217H26.1598V13.7068H21.7916L22.0553 15.7232C23.5582 16.1282 24.9645 16.8606 25.8082 17.6706C27.0739 18.8942 27.944 20.1608 27.944 22.2289V29.1654ZM12.9497 28.3037V27.4506H26.1598V28.3037C26.1598 28.7776 25.7643 29.1654 25.2721 29.1654H13.8374C13.3452 29.1654 12.9497 28.7776 12.9497 28.3037ZM26.1598 22.2719C26.1598 15.3785 12.9497 15.3785 12.9497 22.2719H26.1598ZM12.9673 24.0039H26.151V25.7273H12.9673V24.0039Z" fill="#858585"/>
</g>
<defs>
<clipPath id="clip0_5331_3712">
<rect width="21.0939" height="20.6803" fill="white" transform="translate(12.0706 9.76465)"/>
</clipPath>
</defs>
</svg>
