<svg width="25" height="25" viewBox="0 0 25 25" fill="none" xmlns="http://www.w3.org/2000/svg">
<path d="M15.5 9.45833C15.1583 9.45833 14.875 9.175 14.875 8.83333V7.16666C14.875 4.54166 14.1333 2.79166 10.5 2.79166C6.86667 2.79166 6.125 4.54166 6.125 7.16666V8.83333C6.125 9.175 5.84167 9.45833 5.5 9.45833C5.15833 9.45833 4.875 9.175 4.875 8.83333V7.16666C4.875 4.75 5.45833 1.54166 10.5 1.54166C15.5417 1.54166 16.125 4.75 16.125 7.16666V8.83333C16.125 9.175 15.8417 9.45833 15.5 9.45833Z" fill="#777777"/>
<path d="M10.4998 16.5417C9.00817 16.5417 7.7915 15.325 7.7915 13.8333C7.7915 12.3417 9.00817 11.125 10.4998 11.125C11.9915 11.125 13.2082 12.3417 13.2082 13.8333C13.2082 15.325 11.9915 16.5417 10.4998 16.5417ZM10.4998 12.375C9.69984 12.375 9.0415 13.0333 9.0415 13.8333C9.0415 14.6333 9.69984 15.2917 10.4998 15.2917C11.2998 15.2917 11.9582 14.6333 11.9582 13.8333C11.9582 13.0333 11.2998 12.375 10.4998 12.375Z" fill="#777777"/>
<path d="M14.6665 19.4583H6.33317C2.65817 19.4583 1.5415 18.3417 1.5415 14.6667V13C1.5415 9.325 2.65817 8.20834 6.33317 8.20834H14.6665C18.3415 8.20834 19.4582 9.325 19.4582 13V14.6667C19.4582 18.3417 18.3415 19.4583 14.6665 19.4583ZM6.33317 9.45834C3.34984 9.45834 2.7915 10.025 2.7915 13V14.6667C2.7915 17.6417 3.34984 18.2083 6.33317 18.2083H14.6665C17.6498 18.2083 18.2082 17.6417 18.2082 14.6667V13C18.2082 10.025 17.6498 9.45834 14.6665 9.45834H6.33317Z" fill="#777777"/>
</svg>
