<svg width="21" height="21" viewBox="0 0 21 21" fill="none" xmlns="http://www.w3.org/2000/svg">
<path d="M10.5002 11.125C7.8585 11.125 5.7085 8.975 5.7085 6.33333C5.7085 3.69167 7.8585 1.54167 10.5002 1.54167C13.1418 1.54167 15.2918 3.69167 15.2918 6.33333C15.2918 8.975 13.1418 11.125 10.5002 11.125ZM10.5002 2.79167C8.55016 2.79167 6.9585 4.38333 6.9585 6.33333C6.9585 8.28333 8.55016 9.875 10.5002 9.875C12.4502 9.875 14.0418 8.28333 14.0418 6.33333C14.0418 4.38333 12.4502 2.79167 10.5002 2.79167Z" fill="#777777"/>
<path d="M17.6585 19.4583C17.3168 19.4583 17.0335 19.175 17.0335 18.8333C17.0335 15.9583 14.1001 13.625 10.5001 13.625C6.90013 13.625 3.9668 15.9583 3.9668 18.8333C3.9668 19.175 3.68346 19.4583 3.3418 19.4583C3.00013 19.4583 2.7168 19.175 2.7168 18.8333C2.7168 15.275 6.20846 12.375 10.5001 12.375C14.7918 12.375 18.2835 15.275 18.2835 18.8333C18.2835 19.175 18.0001 19.4583 17.6585 19.4583Z" fill="#777777"/>
</svg>
